<svg xmlns="http://www.w3.org/2000/svg" viewBox="0 0 200 56" fill="none">
  <!-- Light-theme logo: dark text paths on transparent, gold AI, RHCP asterisk -->
  <!-- "ATT" in dark -->
  <g transform="translate(18, 8)">
    <!-- A -->
    <path d="M0,40 L12.5,0 L17.5,0 L30,40 L24,40 L21,30 L9,30 L6,40 Z M10.5,25 L19.5,25 L15,8 Z" fill="#1A1816"/>
    <!-- T -->
    <path d="M32,0 L56,0 L56,5.5 L47,5.5 L47,40 L41,40 L41,5.5 L32,5.5 Z" fill="#1A1816"/>
    <!-- T -->
    <path d="M58,0 L82,0 L82,5.5 L73,5.5 L73,40 L67,40 L67,5.5 L58,5.5 Z" fill="#1A1816"/>
  </g>
  <!-- "AI" in gold -->
  <g transform="translate(102, 8)">
    <!-- A -->
    <path d="M0,40 L12.5,0 L17.5,0 L30,40 L24,40 L21,30 L9,30 L6,40 Z M10.5,25 L19.5,25 L15,8 Z" fill="#C9A96E"/>
    <!-- I -->
    <path d="M33,0 L39,0 L39,40 L33,40 Z" fill="#C9A96E"/>
  </g>
  <!-- "RE" in dark -->
  <g transform="translate(144, 8)">
    <!-- R -->
    <path d="M0,0 L14,0 Q22,0 22,10 Q22,17 17,19 L24,40 L18,40 L11.5,20 L6,20 L6,40 L0,40 Z M6,5.5 L6,15 L13,15 Q16,15 16,10 Q16,5.5 13,5.5 Z" fill="#1A1816"/>
    <!-- E -->
    <path d="M27,0 L48,0 L48,5.5 L33,5.5 L33,17 L46,17 L46,22.5 L33,22.5 L33,34.5 L48,34.5 L48,40 L27,40 Z" fill="#1A1816"/>
  </g>
  <!-- RHCP-style 6-arm asterisk in gold -->
  <g transform="translate(177, 1) scale(0.12)">
    <path d="M34.5,2.4 L65.5,2.4 L65,24 L83.5,12.8 L98.9,39.6 L80,50 L98.9,60.4 L83.5,87.2 L65,76 L65.5,97.6 L34.5,97.6 L35,76 L16.5,87.2 L1.1,60.4 L20,50 L1.1,39.6 L16.5,12.8 L35,24 Z" fill="#C9A96E"/>
  </g>
</svg>
