<svg xmlns="http://www.w3.org/2000/svg" viewBox="0 0 200 56" fill="none">
  <!-- Light-theme logo: dark text paths on transparent (for light backgrounds), gold AI, RHCP asterisk -->
  <!-- ATT — dark -->
  <g fill="#1A1816">
    <!-- A -->
    <path d="M22.5 10h5.2L40 42h-5.8l-2.8-7.6H18.6L15.8 42H10L22.5 10zm-2.2 20h10.4L25.5 15.8h-.1L20.3 30z"/>
    <!-- T -->
    <path d="M42 10h22v4.6H57.2V42h-5.4V14.6H42V10z"/>
    <!-- T -->
    <path d="M66 10h22v4.6H82.2V42h-5.4V14.6H66V10z"/>
  </g>
  <!-- AI — gold -->
  <g fill="#C9A96E">
    <!-- A -->
    <path d="M93.5 10h5.2L111 42h-5.8l-2.8-7.6H89.6L86.8 42H81L93.5 10zm-2.2 20h10.4L96.5 15.8h-.1L91.3 30z"/>
    <!-- I -->
    <path d="M114 10h5.4v32H114V10z"/>
  </g>
  <!-- RE — dark -->
  <g fill="#1A1816">
    <!-- R -->
    <path d="M124 10h11.8c3.2 0 5.6.9 7.2 2.6 1.4 1.5 2.1 3.5 2.1 6 0 2.2-.6 4-1.7 5.4-1.1 1.3-2.7 2.2-4.7 2.6l7.4 15.4h-5.9l-6.8-14.8H129.4V42H124V10zm5.4 13.2h6c2 0 3.4-.5 4.3-1.4.9-.9 1.3-2.2 1.3-3.7 0-1.5-.4-2.7-1.3-3.5-.9-.9-2.3-1.3-4.3-1.3h-6v9.9z"/>
    <!-- E -->
    <path d="M150 10h19v4.6h-13.6v8.8H168v4.6h-12.6V37.4H169V42h-19V10z"/>
  </g>
  <!-- RHCP-style 6-arm asterisk in gold -->
  <g transform="translate(177, 1) scale(0.12)">
    <path d="M34.5,2.4 L65.5,2.4 L65,24 L83.5,12.8 L98.9,39.6 L80,50 L98.9,60.4 L83.5,87.2 L65,76 L65.5,97.6 L34.5,97.6 L35,76 L16.5,87.2 L1.1,60.4 L20,50 L1.1,39.6 L16.5,12.8 L35,24 Z" fill="#C9A96E"/>
  </g>
</svg>
